<?xml version="1.0" encoding="UTF-8" standalone="no"?>
<!-- Created with Inkscape (http://www.inkscape.org/) -->

<svg
   version="1.1"
   id="svg2"
   xml:space="preserve"
   width="2036.5592"
   height="1907.4252"
   viewBox="0 0 2036.5592 1907.4251"
   sodipodi:docname="logo.svg"
   inkscape:version="1.2.1 (9c6d41e410, 2022-07-14)"
   xmlns:inkscape="http://www.inkscape.org/namespaces/inkscape"
   xmlns:sodipodi="http://sodipodi.sourceforge.net/DTD/sodipodi-0.dtd"
   xmlns="http://www.w3.org/2000/svg"
   xmlns:svg="http://www.w3.org/2000/svg"><defs
     id="defs6" /><sodipodi:namedview
     id="namedview4"
     pagecolor="#ffffff"
     bordercolor="#666666"
     borderopacity="1.0"
     inkscape:pageshadow="2"
     inkscape:pageopacity="0.0"
     inkscape:pagecheckerboard="0"
     inkscape:showpageshadow="2"
     inkscape:deskcolor="#d1d1d1"
     showgrid="false"
     inkscape:zoom="0.30705978"
     inkscape:cx="960.72499"
     inkscape:cy="1279.8811"
     inkscape:window-width="1920"
     inkscape:window-height="1009"
     inkscape:window-x="-8"
     inkscape:window-y="-8"
     inkscape:window-maximized="1"
     inkscape:current-layer="g10" /><g
     id="g8"
     inkscape:groupmode="layer"
     inkscape:label="ink_ext_XXXXXX"
     transform="matrix(1.3333333,0,0,-1.3333333,-387.86316,2305.291)"><g
       id="g10"
       transform="scale(0.1)"><path
         d="m 6672.15,17121.6 c -118.68,110.6 -280.29,186.2 -440.77,164.3 -292.36,-40.2 -447.62,-361.1 -535.04,-643 -115.07,-370.6 -202.06,-768.2 -259.8,-1151.9 0,-13.9 1935.94,520.9 1935.94,520.9 -135.48,233.6 -281.89,483.3 -417.14,716.7 -81.34,140.3 -164.51,282.7 -283.19,393"
         style="fill:#e9b44d;fill-opacity:1;fill-rule:nonzero;stroke:none"
         id="path14" /><path
         d="m 10441.3,16970.7 c -169.6,74.8 -365.2,-10.7 -521.22,-111 -344.65,-221.8 -647.81,-538.8 -856.91,-891.1 L 10727,15330.7 c 29.5,369.2 24.6,741.1 -15.3,1109.2 -22.5,207.2 -80,446.4 -270.4,530.8"
         style="fill:#e9b44d;fill-opacity:1;fill-rule:nonzero;stroke:none"
         id="path16" /><path
         d="m 13278.7,13636.2 c 137.8,224.3 250.7,521.4 100.7,737.4 -136.2,195.7 -414.7,215.9 -652.4,197.8 -359.2,-27.4 -730.9,-99.1 -1072.7,-212.4 l 612.7,-1837.9 c 400.4,301.1 749.5,688.1 1011.7,1115.1"
         style="fill:#e9b44d;fill-opacity:1;fill-rule:nonzero;stroke:none"
         id="path18" /><path
         d="m 14208.1,11006.7 c -34.2,172.4 -190.2,300.1 -358,352.1 -168,52.2 -348,42.9 -523.5,32.9 -293.2,-16.4 -587.1,-33 -880,-49.6 -49.7,-723.9 238.4,-1326 679.4,-1872.5 274,314.7 547.8,629.4 821.6,944.1 147,169.2 304,373.2 260.5,593"
         style="fill:#e9b44d;fill-opacity:1;fill-rule:nonzero;stroke:none"
         id="path20" /><path
         d="m 14579.6,8181.1 c -267.9,-26.2 -533.4,-76.3 -792.6,-149.1 l 813.7,-1550.4 c 167,254.6 334,508.9 501,763.5 141.7,216.1 287,492 160.1,716.9 -124.4,220.7 -429.9,243.9 -682.2,219.1"
         style="fill:#e9b44d;fill-opacity:1;fill-rule:nonzero;stroke:none"
         id="path22" /><path
         d="m 16985,5130.3 c -32.7,235.6 -135.8,495.2 -360.6,572.9 -214.6,74 -442.8,-48.7 -636.8,-167.2 -117.7,-71.7 -235.2,-143.6 -352.9,-215.5 l 1347.2,-752.4 c 27.5,186 29.1,375.9 3.1,562.2"
         style="fill:#e9b44d;fill-opacity:1;fill-rule:nonzero;stroke:none"
         id="path24" /><path
         d="m 4821.92,6138.1 c 0,616.3 -348.42,850 -746.12,889.2 -397.7,39.2 -773.04,-243.2 -958.86,-597 -185.82,-353.8 -195.62,-789.3 -207.16,-1188.8 -11.14,-385.5 94.13,-1318.6 255.75,-1668.7 432.44,-937 1447.54,-477.2 1962.96,-467.8 2267.75,41.6 8595.71,345.6 12023.91,192.5 1461.7,-65.2 1210.5,751 229.4,1140.8 -632.9,251.5 -1870,890.6 -2312.1,1391 -590.1,667.8 -2510.8,4585.5 -2663.2,5721.9 -152.3,1136.5 -299.2,2445.3 -1108.1,3257.9 -894.4,898.6 -1622.33,1153 -2888.51,1218.2 -1188.47,61.2 -2431.01,-128.6 -3415.68,-796.9 -984.68,-668.3 -1649.88,-1885.8 -1427.15,-3054.8 222.73,-1169 1562.03,-1823.2 2632.51,-1920.3 -377.54,-767.1 -920.93,-2743 -770.43,-4122 l -607.22,4.8"
         style="fill:#3dc5a1;fill-opacity:1;fill-rule:nonzero;stroke:none"
         id="path26" /><path
         d="m 8074.81,14429.1 -35.68,12.8 c -252.43,76.6 -539.4,-183.5 -488,-442.2 51.39,-258.7 415.95,-389.3 619.95,-222.1 203.99,167.3 147.39,550.4 -96.27,651.5"
         style="fill:#1a1d3f;fill-opacity:1;fill-rule:nonzero;stroke:none"
         id="path28" /><path
         d="m 8090.63,7459.3 c -133.99,0 -264.79,19.2 -388.06,58.2 -490.75,155.6 -822.47,654.5 -739.51,1112.1 68.24,376.4 365.74,642.4 617.3,832.1 40.08,30.3 80.82,60.2 121.65,90.1 211.27,155.1 410.82,301.5 531.98,501 45.38,74.6 142.68,98.4 217.35,53 74.66,-45.3 98.41,-142.6 53.06,-217.3 -153.77,-253.1 -388.35,-425.2 -615.2,-591.7 -39.71,-29.2 -79.34,-58.2 -118.35,-87.6 -205.57,-155.1 -447.78,-367.5 -496.47,-636 -54.65,-301.5 185.21,-646.8 523.78,-754.1 318.24,-100.9 709.14,-25.3 1045.63,202.1 336.56,227.4 581.45,564.4 776.62,864.1 47.68,73.3 145.68,93.9 218.89,46.3 73.2,-47.7 93.9,-145.7 46.24,-218.9 C 9673.1,8386.4 9404.23,8018 9020.93,7759 8730.19,7562.6 8401.84,7459.3 8090.63,7459.3"
         style="fill:#1a1d3f;fill-opacity:1;fill-rule:nonzero;stroke:none"
         id="path30" /><path
         d="m 5429.1,5975.1 c -86.46,0 -157.07,69.6 -158.12,156.3 -1.08,87.4 68.89,159.1 156.25,160.1 143.65,1.8 274.26,4.4 400.57,6.9 304.31,6 591.71,11.7 1032.65,5.9 87.35,-1.1 157.24,-72.9 156.09,-160.2 -1.14,-86.7 -71.75,-156.1 -158.13,-156.1 -0.7,0 -1.4,0 -2.13,0 -435.64,5.7 -720.59,0 -1022.2,-6 -126.9,-2.5 -258.15,-5.1 -403.02,-6.8 -0.64,-0.1 -1.3,-0.1 -1.96,-0.1"
         style="fill:#1a1d3f;fill-opacity:1;fill-rule:nonzero;stroke:none"
         id="path32" /></g></g></svg>
